<?xml version="1.0" encoding="UTF-8" standalone="no"?>
<svg xmlns:xlink="http://www.w3.org/1999/xlink" height="103.0px" width="108.45px" xmlns="http://www.w3.org/2000/svg">
  <g transform="matrix(1.0, 0.0, 0.0, 1.0, 0.0, 0.0)">
    <path d="M108.45 20.4 L95.8 20.4 Q97.85 12.7 100.95 4.9 L101.05 4.65 Q102.5 1.55 104.05 1.25 L104.8 2.35 Q107.6 6.75 108.45 20.4 M81.4 15.85 L83.0 11.05 19.05 11.05 17.45 15.85 81.4 15.85 M98.8 3.6 Q95.6 11.45 93.55 19.3 L93.3 20.2 Q90.25 32.15 90.55 43.9 L84.2 45.75 90.75 46.7 Q90.95 52.85 92.5 59.9 L95.45 74.85 89.3 75.5 95.8 77.95 Q97.5 86.35 98.95 97.2 99.6 101.4 96.25 102.3 92.6 100.5 90.75 97.65 88.7 94.55 88.25 88.4 L12.15 88.4 9.85 68.95 18.05 67.55 9.45 65.65 8.75 60.25 Q6.3 42.85 8.45 25.6 L15.5 24.65 8.75 23.5 9.05 21.3 17.7 20.45 9.65 17.6 Q10.75 11.25 13.0 3.75 14.2 0.35 16.35 0.0 L102.0 0.0 Q100.4 0.05 98.9 3.35 L98.8 3.6 M15.75 51.6 L16.1 56.4 80.05 56.4 79.7 51.6 15.75 51.6 M78.8 36.65 L79.15 31.8 15.2 31.8 14.9 36.65 78.8 36.65 M81.85 78.25 L81.5 73.45 17.6 73.45 17.9 78.25 81.85 78.25 M7.7 103.0 L7.5 102.95 Q0.9 102.45 0.0 90.65 L86.05 90.65 Q86.55 96.85 88.55 99.85 90.4 102.7 93.6 102.95 L9.35 102.95 7.7 103.0" fill="#ffffff" fill-rule="evenodd" stroke="none"/>
  </g>
</svg>
